<svg width="129" height="129" viewBox="0 0 129 129" fill="none" xmlns="http://www.w3.org/2000/svg">
<path fill-rule="evenodd" clip-rule="evenodd" d="M64.5 10.75C34.8139 10.75 10.75 34.8139 10.75 64.5C10.75 74.6588 13.5719 84.1725 18.4792 92.278L13.6848 108.575C13.4095 109.511 13.3914 110.503 13.6323 111.448C13.8733 112.394 14.3644 113.256 15.0541 113.946C15.7438 114.636 16.6065 115.127 17.5516 115.368C18.4967 115.609 19.4893 115.591 20.425 115.315L36.722 110.521C45.0999 115.59 54.7079 118.263 64.5 118.25C94.1861 118.25 118.25 94.1861 118.25 64.5C118.25 34.8139 94.1861 10.75 64.5 10.75ZM52.3418 76.6636C63.2154 87.5319 73.5945 88.967 77.2602 89.1014C82.8341 89.3056 88.2629 85.0486 90.3752 80.109C90.6419 79.4945 90.7387 78.8197 90.6555 78.155C90.5723 77.4903 90.3122 76.8602 89.9023 76.3304C86.9567 72.5679 82.9739 69.8643 79.0824 67.1768C78.2699 66.615 77.2714 66.3896 76.2964 66.5479C75.3213 66.7063 74.4455 67.236 73.8525 68.026L70.6275 72.9441C70.458 73.2085 70.1937 73.3981 69.889 73.4741C69.5842 73.55 69.2619 73.5066 68.9881 73.3526C66.8005 72.1003 63.6131 69.9718 61.3234 67.682C59.0336 65.3923 57.0341 62.35 55.9108 60.3021C55.7715 60.042 55.7312 59.7401 55.7974 59.4525C55.8636 59.1649 56.0318 58.9111 56.2709 58.738L61.2374 55.0508C61.9462 54.4345 62.4036 53.5791 62.5225 52.6474C62.6414 51.7157 62.4136 50.7728 61.8824 49.9983C59.4744 46.4723 56.6686 41.9895 52.5998 39.0171C52.0746 38.6366 51.4595 38.3993 50.8149 38.3286C50.1703 38.258 49.5183 38.3563 48.9233 38.614C43.9783 40.7318 39.6997 46.1605 39.904 51.7451C40.0384 55.4109 41.4735 65.79 52.3418 76.6636Z" fill="#84269E"/>
</svg>
