<svg width="130" height="130" viewBox="0 0 130 130" fill="none" xmlns="http://www.w3.org/2000/svg">
<path d="M70.5682 10.8335C76.6619 10.8497 79.7549 10.8822 82.4253 10.9581L83.4761 10.996C84.6895 11.0393 85.8865 11.0935 87.3328 11.1585C93.0961 11.4293 97.0286 12.3393 100.479 13.6772C104.054 15.0531 107.066 16.9164 110.077 19.9227C112.832 22.6304 114.963 25.9059 116.323 29.521C117.661 32.9714 118.571 36.9039 118.842 42.6727C118.907 44.1135 118.961 45.3106 119.004 46.5293L119.037 47.5802C119.118 50.2452 119.15 53.3381 119.161 59.4318L119.167 63.4727V70.5685C119.18 74.5194 119.138 78.4704 119.042 82.4202L119.009 83.471C118.966 84.6898 118.912 85.8868 118.847 87.3277C118.576 93.0964 117.655 97.0235 116.323 100.479C114.967 104.096 112.835 107.373 110.077 110.078C107.369 112.831 104.094 114.962 100.479 116.323C97.0286 117.661 93.0961 118.571 87.3328 118.842C86.0475 118.902 84.7619 118.957 83.4761 119.004L82.4253 119.037C79.7549 119.113 76.6619 119.151 70.5682 119.161L66.5274 119.167H59.437C55.4842 119.18 51.5315 119.139 47.5799 119.042L46.529 119.01C45.2432 118.961 43.9576 118.905 42.6724 118.842C36.909 118.571 32.9765 117.661 29.5207 116.323C25.906 114.966 22.6319 112.834 19.9278 110.078C17.1709 107.371 15.0378 104.095 13.677 100.479C12.339 97.0289 11.429 93.0964 11.1582 87.3277C11.0979 86.0424 11.0437 84.7568 10.9957 83.471L10.9686 82.4202C10.8688 78.4704 10.8237 74.5195 10.8332 70.5685V59.4318C10.8181 55.4809 10.8578 51.53 10.9524 47.5802L10.9903 46.5293C11.0336 45.3106 11.0878 44.1135 11.1528 42.6727C11.4236 36.9039 12.3336 32.9768 13.6715 29.521C15.0317 25.9021 17.1692 22.6257 19.9332 19.9227C22.6366 17.1681 25.9086 15.0368 29.5207 13.6772C32.9765 12.3393 36.9036 11.4293 42.6724 11.1585C44.1132 11.0935 45.3157 11.0393 46.529 10.996L47.5799 10.9635C51.5297 10.8673 55.4806 10.8257 59.4315 10.8389L70.5682 10.8335ZM64.9999 37.9168C57.8169 37.9168 50.9282 40.7702 45.8491 45.8494C40.77 50.9285 37.9165 57.8172 37.9165 65.0002C37.9165 72.1831 40.77 79.0719 45.8491 84.151C50.9282 89.2301 57.8169 92.0835 64.9999 92.0835C72.1828 92.0835 79.0716 89.2301 84.1507 84.151C89.2298 79.0719 92.0832 72.1831 92.0832 65.0002C92.0832 57.8172 89.2298 50.9285 84.1507 45.8494C79.0716 40.7702 72.1828 37.9168 64.9999 37.9168ZM64.9999 48.7502C67.1339 48.7498 69.247 49.1698 71.2187 49.9861C73.1904 50.8024 74.9819 51.9991 76.4911 53.5078C78.0004 55.0165 79.1976 56.8077 80.0146 58.7791C80.8316 60.7505 81.2522 62.8635 81.2526 64.9975C81.2529 67.1314 80.833 69.2446 80.0167 71.2163C79.2003 73.188 78.0037 74.9795 76.495 76.4887C74.9863 77.9979 73.1951 79.1952 71.2237 80.0122C69.2523 80.8291 67.1393 81.2498 65.0053 81.2502C60.6955 81.2502 56.5623 79.5381 53.5148 76.4907C50.4673 73.4432 48.7553 69.3099 48.7553 65.0002C48.7553 60.6904 50.4673 56.5571 53.5148 53.5097C56.5623 50.4622 60.6955 48.7502 65.0053 48.7502M93.4428 29.7918C91.647 29.7918 89.9249 30.5052 88.6551 31.775C87.3853 33.0447 86.672 34.7669 86.672 36.5627C86.672 38.3584 87.3853 40.0806 88.6551 41.3504C89.9249 42.6201 91.647 43.3335 93.4428 43.3335C95.2385 43.3335 96.9607 42.6201 98.2305 41.3504C99.5003 40.0806 100.214 38.3584 100.214 36.5627C100.214 34.7669 99.5003 33.0447 98.2305 31.775C96.9607 30.5052 95.2385 29.7918 93.4428 29.7918Z" fill="#84269E"/>
</svg>
