<svg width="124" height="124" viewBox="0 0 124 124" fill="none" xmlns="http://www.w3.org/2000/svg">
<path d="M105.762 10.3332H18.2386C17.2547 10.3196 16.2778 10.4999 15.3636 10.8638C14.4495 11.2277 13.616 11.7681 12.9107 12.4542C12.2054 13.1403 11.6422 13.9586 11.2532 14.8624C10.8642 15.7662 10.657 16.7377 10.6436 17.7216V106.278C10.657 107.262 10.8642 108.234 11.2532 109.137C11.6422 110.041 12.2054 110.86 12.9107 111.546C13.616 112.232 14.4495 112.772 15.3636 113.136C16.2778 113.5 17.2547 113.68 18.2386 113.667H105.762C106.746 113.68 107.723 113.5 108.637 113.136C109.551 112.772 110.384 112.232 111.09 111.546C111.795 110.86 112.358 110.041 112.747 109.137C113.136 108.234 113.343 107.262 113.357 106.278V17.7216C113.343 16.7377 113.136 15.7662 112.747 14.8624C112.358 13.9586 111.795 13.1403 111.09 12.4542C110.384 11.7681 109.551 11.2277 108.637 10.8638C107.723 10.4999 106.746 10.3196 105.762 10.3332ZM41.7986 96.8232H26.2986V50.3232H41.7986V96.8232ZM34.0486 43.8132C31.9109 43.8132 29.8608 42.9641 28.3493 41.4525C26.8377 39.941 25.9886 37.8909 25.9886 35.7532C25.9886 33.6156 26.8377 31.5655 28.3493 30.054C29.8608 28.5424 31.9109 27.6932 34.0486 27.6932C35.1837 27.5645 36.3331 27.677 37.4217 28.0233C38.5104 28.3696 39.5135 28.942 40.3656 29.7029C41.2177 30.4638 41.8994 31.3961 42.3662 32.4387C42.833 33.4814 43.0743 34.6109 43.0743 35.7532C43.0743 36.8956 42.833 38.0251 42.3662 39.0678C41.8994 40.1104 41.2177 41.0427 40.3656 41.8036C39.5135 42.5645 38.5104 43.1369 37.4217 43.4832C36.3331 43.8295 35.1837 43.942 34.0486 43.8132ZM97.7019 96.8232H82.2019V71.8682C82.2019 65.6166 79.9802 61.5349 74.3486 61.5349C72.6057 61.5477 70.9085 62.0944 69.4859 63.1013C68.0632 64.1082 66.9834 65.5271 66.3919 67.1666C65.9876 68.381 65.8124 69.6599 65.8752 70.9382V96.7716H50.3752V50.2716H65.8752V56.8332C67.2833 54.39 69.3312 52.3771 71.7985 51.0115C74.2658 49.6458 77.0588 48.9791 79.8769 49.0832C90.2102 49.0832 97.7019 55.7482 97.7019 70.0599V96.8232Z" fill="#84269E"/>
</svg>
