<svg width="119" height="119" viewBox="0 0 119 119" fill="none" xmlns="http://www.w3.org/2000/svg">
<path d="M59.8793 14.8677H60.5413C66.6549 14.89 97.6321 15.1131 105.984 17.3592C108.509 18.0447 110.81 19.3809 112.657 21.2342C114.504 23.0876 115.832 25.3931 116.508 27.9205C117.26 30.7467 117.788 34.4878 118.145 38.3479L118.219 39.1214L118.383 41.0551L118.442 41.8286C118.926 48.6265 118.985 54.993 118.993 56.3838V56.9416C118.985 58.3845 118.918 65.1824 118.383 72.2629L118.323 73.0438L118.256 73.8173C117.884 78.0716 117.334 82.2961 116.508 85.4049C115.832 87.9323 114.504 90.2379 112.657 92.0912C110.81 93.9445 108.509 95.2807 105.984 95.9662C97.3569 98.2867 64.5649 98.4503 60.0206 98.4577H58.9645C56.6663 98.4577 47.1612 98.4131 37.1949 98.071L35.9306 98.0264L35.2835 97.9966L34.0117 97.9445L32.7399 97.8925C24.4842 97.5281 16.6228 96.9405 13.0008 95.9587C10.4767 95.2739 8.17641 93.9388 6.32969 92.0869C4.48297 90.2349 3.15442 87.9309 2.47669 85.4049C1.65113 82.3035 1.10075 78.0716 0.728875 73.8173L0.669375 73.0364L0.609875 72.2629C0.240703 67.2233 0.0373014 62.173 0 57.1201L0 56.2053C0.014875 54.6062 0.074375 49.0802 0.476 42.9814L0.528063 42.2154L0.550375 41.8286L0.609875 41.0551L0.7735 39.1214L0.847875 38.3479C1.20487 34.4878 1.73294 30.7393 2.48412 27.9205C3.16072 25.3931 4.48877 23.0876 6.33556 21.2342C8.18235 19.3809 10.4832 18.0447 13.0082 17.3592C16.6302 16.3924 24.4917 15.7974 32.7473 15.4255L34.0117 15.3734L35.2909 15.3288L35.9306 15.3065L37.2024 15.2544C44.2807 15.0269 51.3619 14.9004 58.4439 14.8751L59.8793 14.8677ZM47.6 38.7421V74.5759L78.5177 56.6664L47.6 38.7421Z" fill="#84269E"/>
</svg>
